<svg id="visual" viewBox="0 0 900 600" width="900" height="600" xmlns="http://www.w3.org/2000/svg" xmlns:xlink="http://www.w3.org/1999/xlink" version="1.1"><rect x="0" y="0" width="900" height="600" fill="#7c0b3a"></rect><g transform="translate(403.56266768908057 288.98820013262315)"><path d="M90.3 -121.9C124.3 -99.7 163.9 -82.9 193.2 -49.4C222.5 -15.9 241.6 34.4 237 85.9C232.5 137.3 204.4 190 161 204.7C117.6 219.5 58.8 196.2 8.6 184.4C-41.5 172.5 -83.1 172 -100.9 149C-118.7 125.9 -112.9 80.3 -118.1 43.3C-123.3 6.3 -139.6 -22.2 -143.8 -58.2C-147.9 -94.2 -139.8 -137.7 -113.8 -162.4C-87.8 -187.1 -43.9 -193.1 -7.8 -182.3C28.2 -171.5 56.4 -144 90.3 -121.9" fill="#ad1652"></path></g></svg>