<svg id="visual" viewBox="0 0 900 600" width="900" height="600" xmlns="http://www.w3.org/2000/svg" xmlns:xlink="http://www.w3.org/1999/xlink" version="1.1"><rect x="0" y="0" width="900" height="600" fill="#7c0b3a"></rect><g transform="translate(440.13651772647887 275.20596553050905)"><path d="M129.4 -175.5C167.1 -150.7 196.7 -112.1 200.5 -71.9C204.2 -31.7 182 10.1 173.6 62.8C165.3 115.5 170.8 179.1 144.2 216C117.6 252.8 58.8 262.9 16.9 239.6C-24.9 216.2 -49.8 159.5 -86.7 126C-123.6 92.5 -172.6 82.2 -180.1 58.6C-187.7 35 -153.8 -2 -127.8 -29.1C-101.9 -56.3 -84 -73.7 -64.1 -104.2C-44.1 -134.7 -22 -178.3 11.9 -194.7C45.8 -211.1 91.7 -200.2 129.4 -175.5" fill="#ad1652"></path></g></svg>