<svg id="visual" viewBox="0 0 900 600" width="900" height="600" xmlns="http://www.w3.org/2000/svg" xmlns:xlink="http://www.w3.org/1999/xlink" version="1.1"><rect x="0" y="0" width="900" height="600" fill="#151a1e"></rect><path d="M0 123L18.8 119.8C37.7 116.7 75.3 110.3 112.8 108.8C150.3 107.3 187.7 110.7 225.2 113.7C262.7 116.7 300.3 119.3 337.8 118.7C375.3 118 412.7 114 450.2 113C487.7 112 525.3 114 562.8 114.2C600.3 114.3 637.7 112.7 675.2 113.8C712.7 115 750.3 119 787.8 123C825.3 127 862.7 131 881.3 133L900 135L900 0L881.3 0C862.7 0 825.3 0 787.8 0C750.3 0 712.7 0 675.2 0C637.7 0 600.3 0 562.8 0C525.3 0 487.7 0 450.2 0C412.7 0 375.3 0 337.8 0C300.3 0 262.7 0 225.2 0C187.7 0 150.3 0 112.8 0C75.3 0 37.7 0 18.8 0L0 0Z" fill="#e3b67a"></path><path d="M0 56L18.8 57.3C37.7 58.7 75.3 61.3 112.8 61C150.3 60.7 187.7 57.3 225.2 57.3C262.7 57.3 300.3 60.7 337.8 63.2C375.3 65.7 412.7 67.3 450.2 73.3C487.7 79.3 525.3 89.7 562.8 96.2C600.3 102.7 637.7 105.3 675.2 101.2C712.7 97 750.3 86 787.8 78.2C825.3 70.3 862.7 65.7 881.3 63.3L900 61L900 0L881.3 0C862.7 0 825.3 0 787.8 0C750.3 0 712.7 0 675.2 0C637.7 0 600.3 0 562.8 0C525.3 0 487.7 0 450.2 0C412.7 0 375.3 0 337.8 0C300.3 0 262.7 0 225.2 0C187.7 0 150.3 0 112.8 0C75.3 0 37.7 0 18.8 0L0 0Z" fill="#c97e58"></path><path d="M0 44L18.8 49.7C37.7 55.3 75.3 66.7 112.8 67.8C150.3 69 187.7 60 225.2 54.7C262.7 49.3 300.3 47.7 337.8 46.8C375.3 46 412.7 46 450.2 47.3C487.7 48.7 525.3 51.3 562.8 53.7C600.3 56 637.7 58 675.2 57.5C712.7 57 750.3 54 787.8 52.5C825.3 51 862.7 51 881.3 51L900 51L900 0L881.3 0C862.7 0 825.3 0 787.8 0C750.3 0 712.7 0 675.2 0C637.7 0 600.3 0 562.8 0C525.3 0 487.7 0 450.2 0C412.7 0 375.3 0 337.8 0C300.3 0 262.7 0 225.2 0C187.7 0 150.3 0 112.8 0C75.3 0 37.7 0 18.8 0L0 0Z" fill="#a74845"></path><path d="M0 45L18.8 41.5C37.7 38 75.3 31 112.8 29C150.3 27 187.7 30 225.2 33.7C262.7 37.3 300.3 41.7 337.8 41C375.3 40.3 412.7 34.7 450.2 34.8C487.7 35 525.3 41 562.8 45C600.3 49 637.7 51 675.2 50.5C712.7 50 750.3 47 787.8 45.2C825.3 43.3 862.7 42.7 881.3 42.3L900 42L900 0L881.3 0C862.7 0 825.3 0 787.8 0C750.3 0 712.7 0 675.2 0C637.7 0 600.3 0 562.8 0C525.3 0 487.7 0 450.2 0C412.7 0 375.3 0 337.8 0C300.3 0 262.7 0 225.2 0C187.7 0 150.3 0 112.8 0C75.3 0 37.7 0 18.8 0L0 0Z" fill="#7c0b3a"></path></svg>