<svg id="visual" viewBox="0 0 900 600" width="900" height="600" xmlns="http://www.w3.org/2000/svg" xmlns:xlink="http://www.w3.org/1999/xlink" version="1.1"><rect x="0" y="0" width="900" height="600" fill="#151a1e"></rect><path d="M0 482L18.8 487.7C37.7 493.3 75.3 504.7 112.8 503.2C150.3 501.7 187.7 487.3 225.2 487.2C262.7 487 300.3 501 337.8 510.2C375.3 519.3 412.7 523.7 450.2 523C487.7 522.3 525.3 516.7 562.8 508.8C600.3 501 637.7 491 675.2 489.5C712.7 488 750.3 495 787.8 491.3C825.3 487.7 862.7 473.3 881.3 466.2L900 459L900 601L881.3 601C862.7 601 825.3 601 787.8 601C750.3 601 712.7 601 675.2 601C637.7 601 600.3 601 562.8 601C525.3 601 487.7 601 450.2 601C412.7 601 375.3 601 337.8 601C300.3 601 262.7 601 225.2 601C187.7 601 150.3 601 112.8 601C75.3 601 37.7 601 18.8 601L0 601Z" fill="#e3b67a"></path><path d="M0 528L18.8 528.7C37.7 529.3 75.3 530.7 112.8 530.5C150.3 530.3 187.7 528.7 225.2 521.5C262.7 514.3 300.3 501.7 337.8 496.5C375.3 491.3 412.7 493.7 450.2 501.2C487.7 508.7 525.3 521.3 562.8 527.7C600.3 534 637.7 534 675.2 527.7C712.7 521.3 750.3 508.7 787.8 510.3C825.3 512 862.7 528 881.3 536L900 544L900 601L881.3 601C862.7 601 825.3 601 787.8 601C750.3 601 712.7 601 675.2 601C637.7 601 600.3 601 562.8 601C525.3 601 487.7 601 450.2 601C412.7 601 375.3 601 337.8 601C300.3 601 262.7 601 225.2 601C187.7 601 150.3 601 112.8 601C75.3 601 37.7 601 18.8 601L0 601Z" fill="#c97e58"></path><path d="M0 558L18.8 556.2C37.7 554.3 75.3 550.7 112.8 548C150.3 545.3 187.7 543.7 225.2 545.7C262.7 547.7 300.3 553.3 337.8 555C375.3 556.7 412.7 554.3 450.2 547.7C487.7 541 525.3 530 562.8 527.8C600.3 525.7 637.7 532.3 675.2 534.8C712.7 537.3 750.3 535.7 787.8 532.2C825.3 528.7 862.7 523.3 881.3 520.7L900 518L900 601L881.3 601C862.7 601 825.3 601 787.8 601C750.3 601 712.7 601 675.2 601C637.7 601 600.3 601 562.8 601C525.3 601 487.7 601 450.2 601C412.7 601 375.3 601 337.8 601C300.3 601 262.7 601 225.2 601C187.7 601 150.3 601 112.8 601C75.3 601 37.7 601 18.8 601L0 601Z" fill="#a74845"></path><path d="M0 559L18.8 558.5C37.7 558 75.3 557 112.8 558.3C150.3 559.7 187.7 563.3 225.2 565.7C262.7 568 300.3 569 337.8 568.8C375.3 568.7 412.7 567.3 450.2 567.2C487.7 567 525.3 568 562.8 566.8C600.3 565.7 637.7 562.3 675.2 563.7C712.7 565 750.3 571 787.8 574.5C825.3 578 862.7 579 881.3 579.5L900 580L900 601L881.3 601C862.7 601 825.3 601 787.8 601C750.3 601 712.7 601 675.2 601C637.7 601 600.3 601 562.8 601C525.3 601 487.7 601 450.2 601C412.7 601 375.3 601 337.8 601C300.3 601 262.7 601 225.2 601C187.7 601 150.3 601 112.8 601C75.3 601 37.7 601 18.8 601L0 601Z" fill="#7c0b3a"></path></svg>